<svg width="34" height="36" viewBox="0 0 34 36" fill="none" xmlns="http://www.w3.org/2000/svg">
<path d="M31.1667 25.3799V29.8799C31.1683 30.2977 31.0874 30.7112 30.9294 31.0939C30.7713 31.4767 30.5395 31.8203 30.2488 32.1027C29.958 32.3851 29.6148 32.6001 29.241 32.734C28.8673 32.8678 28.4713 32.9175 28.0783 32.8799C23.719 32.3784 19.5316 30.8011 15.8525 28.2749C12.4296 25.9719 9.52755 22.8992 7.35249 19.2749C4.95829 15.3617 3.46833 10.9064 3.00332 6.2699C2.96792 5.8551 3.01448 5.43704 3.14003 5.04234C3.26558 4.64763 3.46738 4.28494 3.73257 3.97733C3.99776 3.66973 4.32054 3.42397 4.68036 3.25568C5.04017 3.0874 5.42914 3.00029 5.82249 2.9999H10.0725C10.76 2.99274 11.4265 3.25052 11.9478 3.7252C12.4691 4.19988 12.8096 4.85907 12.9058 5.5799C13.0852 7.02 13.4179 8.43399 13.8975 9.7949C14.0881 10.3318 14.1293 10.9153 14.0164 11.4762C13.9034 12.0372 13.6409 12.5521 13.26 12.9599L11.4608 14.8649C13.4775 18.6202 16.4141 21.7296 19.9608 23.8649L21.76 21.9599C22.1452 21.5566 22.6315 21.2787 23.1612 21.159C23.691 21.0394 24.2421 21.0831 24.7492 21.2849C26.0345 21.7927 27.3699 22.145 28.73 22.3349C29.4182 22.4377 30.0466 22.8047 30.4959 23.3661C30.9452 23.9276 31.1839 24.6443 31.1667 25.3799Z" stroke="#C2E7EF" stroke-width="4" stroke-linecap="round" stroke-linejoin="round"/>
</svg>
