<svg width="33" height="34" viewBox="0 0 33 34" fill="none" xmlns="http://www.w3.org/2000/svg">
<path d="M30.1667 24.38V28.88C30.1683 29.2978 30.0874 29.7113 29.9294 30.094C29.7713 30.4768 29.5395 30.8204 29.2488 31.1028C28.958 31.3852 28.6148 31.6002 28.241 31.7341C27.8673 31.8679 27.4713 31.9176 27.0783 31.88C22.719 31.3785 18.5316 29.8012 14.8525 27.275C11.4296 24.972 8.52755 21.8993 6.35249 18.275C3.95829 14.3618 2.46833 9.90652 2.00332 5.27002C1.96792 4.85522 2.01448 4.43716 2.14003 4.04246C2.26558 3.64776 2.46738 3.28506 2.73257 2.97746C2.99776 2.66985 3.32054 2.42409 3.68036 2.25581C4.04017 2.08753 4.42914 2.00042 4.82249 2.00002H9.07249C9.76 1.99286 10.4265 2.25064 10.9478 2.72532C11.4691 3.2 11.8096 3.85919 11.9058 4.58002C12.0852 6.02012 12.4179 7.43411 12.8975 8.79502C13.0881 9.33191 13.1293 9.9154 13.0164 10.4763C12.9034 11.0373 12.6409 11.5522 12.26 11.96L10.4608 13.865C12.4775 17.6203 15.4141 20.7297 18.9608 22.865L20.76 20.96C21.1452 20.5567 21.6315 20.2788 22.1612 20.1592C22.691 20.0395 23.2421 20.0832 23.7492 20.285C25.0345 20.7928 26.3699 21.1451 27.73 21.335C28.4182 21.4378 29.0466 21.8048 29.4959 22.3663C29.9452 22.9277 30.1839 23.6444 30.1667 24.38Z" stroke="#404041" stroke-width="4" stroke-linecap="round" stroke-linejoin="round"/>
</svg>
